<svg width="18" height="18" viewBox="0 0 18 18" fill="none" xmlns="http://www.w3.org/2000/svg">
<path fill-rule="evenodd" clip-rule="evenodd" d="M0.666748 8.99984C0.666748 6.3589 0.666748 5.03843 1.11082 4.00143C1.6672 2.70216 2.7024 1.66695 4.00167 1.11057C5.03867 0.666504 6.35914 0.666504 9.00008 0.666504C11.641 0.666504 12.9615 0.666504 13.9985 1.11057C15.2978 1.66695 16.333 2.70216 16.8893 4.00143C17.3334 5.03843 17.3334 6.3589 17.3334 8.99984C17.3334 11.6408 17.3334 12.9613 16.8893 13.9982C16.333 15.2975 15.2978 16.3327 13.9985 16.8891C12.9615 17.3332 11.641 17.3332 9.00008 17.3332C6.35914 17.3332 5.03867 17.3332 4.00167 16.8891C2.7024 16.3327 1.6672 15.2975 1.11082 13.9982C0.666748 12.9613 0.666748 11.6408 0.666748 8.99984ZM9.00011 4.58827C6.56371 4.58827 4.58834 6.56364 4.58834 9.00003C4.58834 11.4364 6.56371 13.4118 9.00011 13.4118C11.4365 13.4118 13.4119 11.4364 13.4119 9.00003C13.4119 6.56364 11.4365 4.58827 9.00011 4.58827ZM9.00011 11.7574C7.48025 11.7574 6.24275 10.5199 6.24275 9.00003C6.24275 7.47908 7.48025 6.24268 9.00011 6.24268C10.52 6.24268 11.7575 7.47908 11.7575 9.00003C11.7575 10.5199 10.52 11.7574 9.00011 11.7574ZM14.3306 4.257C14.3306 4.58167 14.0674 4.84487 13.7427 4.84487C13.418 4.84487 13.1548 4.58167 13.1548 4.257C13.1548 3.93233 13.418 3.66913 13.7427 3.66913C14.0674 3.66913 14.3306 3.93233 14.3306 4.257Z" fill="#086CF9"/>
</svg>
